/vscmnt/brussel_pixiu_data/_data_brussel/112/vsc11236/PredSimResults/SUBJ07opt3D/trackIG/worker_06.mot
version=1
nRows=10
nColumns=50
inDegrees=yes
endheader
                time	         pelvis_tilt	         pelvis_list	     pelvis_rotation	           pelvis_tx	           pelvis_ty	           pelvis_tz	       hip_flexion_r	     hip_adduction_r	      hip_rotation_r	        knee_angle_r	       ankle_angle_r	         mtp_angle_r	       hip_flexion_l	     hip_adduction_l	      hip_rotation_l	        knee_angle_l	       ankle_angle_l	         mtp_angle_l	    lumbar_extension	      lumbar_bending	     lumbar_rotation	 ercspn_r/activation	 intobl_r/activation	 extobl_r/activation	    abd_r/activation	    add_r/activation	hamstrings_r/activation	bifemsh_r/activation	glut_max_r/activation	iliopsoas_r/activation	rect_fem_r/activation	  vasti_r/activation	gastroc_r/activation	 soleus_r/activation	tib_ant_r/activation	 ercspn_l/activation	 intobl_l/activation	 extobl_l/activation	    abd_l/activation	    add_l/activation	hamstrings_l/activation	bifemsh_l/activation	glut_max_l/activation	iliopsoas_l/activation	rect_fem_l/activation	  vasti_l/activation	gastroc_l/activation	 soleus_l/activation	tib_ant_l/activation	
          1.15630180	         -3.53911913	         -0.04981847	          7.88306064	          1.27193198	          0.85392277	         -0.01400498	         28.39938629	         -2.40888917	         -3.81330097	         -5.81652160	          1.51494175	          0.25935810	        -13.53300975	          0.20122388	          3.53892088	         -8.02963111	          9.75710847	         24.81283836	         -9.80446574	         -2.34131795	         -0.78626122	          0.12849483	          0.15282465	          0.00999999	          0.01255074	          0.10772580	          0.04873273	          0.06281283	          0.05245053	          0.02874046	          0.00999999	          0.00999999	          0.00999999	          0.00999999	          0.38227847	          0.07971018	          0.00999999	          0.00999999	          0.04095423	          0.00999999	          0.01000000	          0.13059003	          0.01510046	          0.12973082	          0.01000004	          0.00999999	          0.14600393	          0.29815952	          0.02023714	
          1.16786481	         -3.56195560	         -0.02532914	          7.92698023	          1.28659530	          0.85247075	         -0.01357999	         28.15621260	         -2.19237213	         -3.54025580	         -6.98793349	          1.17844292	          0.25306551	        -14.10128203	          0.09923838	          3.21624078	         -8.72714417	          8.99058989	         26.29144122	         -9.71303996	         -1.95149030	         -0.99821500	          0.10773288	          0.12813153	          0.00999999	          0.01052281	          0.11233924	          0.04085859	          0.10510873	          0.09120504	          0.02409663	          0.00999999	          0.00999999	          0.01696726	          0.01230902	          0.38430646	          0.10600056	          0.00999999	          0.00999999	          0.03433692	          0.00999999	          0.01192718	          0.10948954	          0.01422572	          0.10876916	          0.00999999	          0.01013379	          0.12241289	          0.28497600	          0.01696726	
          1.17942783	         -3.57760537	         -0.00057665	          7.92758445	          1.30148379	          0.85121607	         -0.01308849	         27.84747726	         -2.02584348	         -3.22282120	         -8.20203158	          0.80229914	          0.24684705	        -14.59689377	          0.00430494	          2.86515915	         -9.58260107	          8.10524810	         27.74592851	         -9.61115111	         -1.55086269	         -1.21042334	          0.12096449	          0.10817253	          0.00999999	          0.06024965	          0.11194786	          0.04729655	          0.11405396	          0.09866059	          0.02020314	          0.00999999	          0.00999999	          0.01422572	          0.01032015	          0.44616067	          0.11310126	          0.00999999	          0.00999999	          0.02878883	          0.00999999	          0.01000002	          0.09179843	          0.01192716	          0.09119444	          0.01539854	          0.00999999	          0.10263364	          0.26724808	          0.01422572	
          1.19099085	         -3.58817244	          0.04321035	          7.88336575	          1.31643864	          0.85029934	         -0.01249976	         27.53058330	         -1.88177625	         -2.96180835	         -9.38627576	          0.35169058	          0.23178178	        -14.95464754	         -0.06175419	          2.49235730	        -10.68400721	          7.06776574	         29.16592319	         -9.51738425	         -1.16690028	         -1.41707987	          0.13138514	          0.09069422	          0.00999999	          0.10415627	          0.13092412	          0.04580999	          0.09562533	          0.11175960	          0.01693876	          0.00999999	          0.00999999	          0.01192716	          0.00999999	          0.47953727	          0.14079285	          0.00999999	          0.00999999	          0.02413718	          0.00999999	          0.01000000	          0.07696581	          0.00999999	          0.07645942	          0.01422573	          0.01506835	          0.08605029	          0.24593998	          0.01192716	
          1.20255387	         -3.59354371	          0.10498645	          7.79893772	          1.33134927	          0.84984012	         -0.01182136	         27.26299267	         -1.75204915	         -2.75160058	        -10.68874630	          0.06638874	          0.21512466	        -15.13095706	         -0.09957263	          2.09863658	        -12.08384274	          5.86008865	         30.50460662	         -9.43846892	         -0.80095230	         -1.61625537	          0.13874459	          0.07604002	          0.00999999	          0.14647527	          0.15383258	          0.04514245	          0.08017437	          0.12986514	          0.01420183	          0.00999999	          0.00999999	          0.00999999	          0.00999999	          0.48470650	          0.17779015	          0.00999999	          0.00999999	          0.02023714	          0.01692560	          0.01000004	          0.06452982	          0.00999999	          0.06410525	          0.01192717	          0.01920856	          0.07214645	          0.22184437	          0.00999999	
          1.21411689	         -3.59387211	          0.18216902	          7.67758595	          1.34611821	          0.84995169	         -0.01106461	         27.06847784	         -1.63595535	         -2.58287762	        -12.15807156	          0.05253664	          0.19741309	        -15.07404547	         -0.11041829	          1.67602334	        -13.85553034	          4.49801390	         31.65062589	         -9.37713965	         -0.45383420	         -1.80728738	          0.14537066	          0.06375361	          0.00999999	          0.17563743	          0.18474678	          0.04407923	          0.06721995	          0.14413434	          0.01190712	          0.00999999	          0.01879079	          0.00999999	          0.00999999	          0.46291922	          0.20574791	          0.00999999	          0.00999999	          0.01696726	          0.04338044	          0.01000002	          0.05410321	          0.00999999	          0.05374724	          0.01000000	          0.01610488	          0.06048916	          0.18688758	          0.00999999	
          1.22567990	         -3.58941824	          0.27461207	          7.52106365	          1.36067292	          0.85068870	         -0.01024408	         26.91704377	         -1.53147397	         -2.44486290	        -13.73139893	          0.33104573	          0.18419079	        -14.70608933	         -0.09374212	          1.20991068	        -16.13350279	          3.05375752	         32.40819988	         -9.33377760	         -0.12764904	         -1.98820536	          0.15066943	          0.05345243	          0.00999999	          0.19013578	          0.21207403	          0.04501366	          0.05635868	          0.15336120	          0.00999999	          0.00999999	          0.02681159	          0.00999999	          0.00999999	          0.42084274	          0.22285112	          0.00999999	          0.00999999	          0.01422572	          0.07389902	          0.01000002	          0.04536132	          0.00999999	          0.04506286	          0.00999999	          0.01350268	          0.05071544	          0.15669064	          0.00999999	
          1.23724292	         -3.58013249	          0.38120313	          7.33172384	          1.37500515	          0.85200532	         -0.00937460	         26.74096200	         -1.43395507	         -2.32016318	        -15.27698585	          0.86312483	          0.19445602	        -13.96808671	         -0.05669928	          0.69046866	        -19.02071535	          1.57544422	         32.59448871	         -9.30177620	          0.17743400	         -2.15666553	          0.15123817	          0.04481568	          0.00999999	          0.19423735	          0.22683554	          0.04676643	          0.04725235	          0.15901294	          0.00999999	          0.00999999	          0.03873197	          0.00999999	          0.00999999	          0.35971961	          0.22948883	          0.00999999	          0.00999999	          0.01192716	          0.10313230	          0.01000001	          0.03803192	          0.00999999	          0.03778169	          0.00999999	          0.01132095	          0.04252093	          0.13137286	          0.00999999	
          1.24880594	         -3.56673397	          0.49901161	          7.11083360	          1.38912148	          0.85381507	         -0.00846828	         26.46421315	         -1.33651851	         -2.18940188	        -16.63907901	          1.55975419	          0.26115496	        -12.82555790	         -0.01317431	          0.13287137	        -22.55329200	         -0.00823770	         32.16482001	         -9.27479612	          0.46377052	         -2.30912075	          0.13646542	          0.03757445	          0.00999999	          0.18713388	          0.22671286	          0.05036132	          0.03961740	          0.15464546	          0.00999999	          0.00999999	          0.05567993	          0.00999999	          0.00999999	          0.30438852	          0.22913445	          0.00999999	          0.00999999	          0.00999999	          0.12378477	          0.01000001	          0.03188679	          0.00999999	          0.03167700	          0.00999999	          0.00999999	          0.03565048	          0.11014588	          0.00999999	
          1.26036896	         -3.55098692	          0.62455104	          6.85880034	          1.40300993	          0.85601157	         -0.00752432	         26.02954325	         -1.23271295	         -2.03618553	        -17.68162414	          2.26150847	          0.38968368	        -11.27786121	          0.02213611	         -0.42954109	        -26.66409856	         -1.86699239	         31.16384183	         -9.25248343	          0.73214604	         -2.44349454	          0.11441560	          0.03150324	          0.00999999	          0.17726302	          0.21289748	          0.05913256	          0.03321610	          0.13698665	          0.00999999	          0.00999999	          0.08038861	          0.00999999	          0.00999999	          0.26759439	          0.22526931	          0.00999999	          0.00999999	          0.00999999	          0.13536063	          0.01000000	          0.02871774	          0.00999999	          0.02655869	          0.00999999	          0.00999999	          0.02989014	          0.09234871	          0.00999999	
